<svg xmlns="http://www.w3.org/2000/svg" version="1.1" xmlns:xlink="http://www.w3.org/1999/xlink" xmlns:svgjs="http://svgjs.dev/svgjs" width="1000" height="1000" viewBox="0 0 1000 1000"><rect width="1000" height="1000" fill="#331e6d"></rect><g transform="matrix(0.31746031746031744,0,0,0.31746031746031744,341.4771660954008,150.28340080971645)"><svg viewBox="0 0 112 247" data-background-color="#331e6d" preserveAspectRatio="xMidYMid meet" height="2205" width="1000" xmlns="http://www.w3.org/2000/svg" xmlns:xlink="http://www.w3.org/1999/xlink"><g id="tight-bounds" transform="matrix(1,0,0,1,-0.07314399238606484,-0.09999999999999432)"><svg viewBox="0 0 112.14628345120227 247.2" height="247.2" width="112.14628345120227"><g><svg></svg></g><g><svg viewBox="0 0 112.14628345120227 247.2" height="247.2" width="112.14628345120227"><g transform="matrix(1,0,0,1,0,47.215199999999996)"><svg viewBox="0 0 112.14628345120227 152.7696" height="152.7696" width="112.14628345120227"><g><svg viewBox="0 0 112.14628345120227 152.7696" height="152.7696" width="112.14628345120227"><g><svg viewBox="0 0 112.14628345120227 152.7696" height="152.7696" width="112.14628345120227"><g><svg viewBox="0 0 112.14628345120227 152.7696" height="152.7696" width="112.14628345120227"><g id="textblocktransform"><svg viewBox="0 0 112.14628345120227 152.7696" height="152.7696" width="112.14628345120227" id="textblock"><g><svg viewBox="0 0 112.14628345120227 152.7696" height="152.7696" width="112.14628345120227"><g transform="matrix(1,0,0,1,0,0)"><svg width="112.14628345120227" viewBox="2.700000047683716 -35.099998474121094 25.94999885559082 35.349998474121094" height="152.7696" data-palette-color="#ffcf31"><path d="M27.35-3.4Q28.05-2.95 28.05-2.3L28.05-2.3Q28.05-1.7 27.65-1.2 27.25-0.7 26.7-0.7L26.7-0.7Q26.1-0.7 25.45-1.2L25.45-1.2 7.6-13.2 7.55-1.05Q7.55-0.45 7.18-0.1 6.8 0.25 6.2 0.25L6.2 0.25Q4.8 0.25 4.8-1.5L4.8-1.5 4.85-16.4Q4.85-21.8 4.55-29.1L4.55-29.1 4.15-28.9Q3.85-28.8 3.75-28.8L3.75-28.8Q3.2-28.8 2.95-29.3 2.7-29.8 2.7-30.4L2.7-30.4Q2.7-31.2 3.75-31.7L3.75-31.7 4.5-32.05 4.5-33.85Q4.5-35.1 5.8-35.1L5.8-35.1Q6.4-35.1 6.75-34.85 7.1-34.6 7.1-34.15L7.1-34.15 7.1-33.2Q9.45-34.2 11.38-34.6 13.3-35 15.3-35L15.3-35Q19.35-35 22.38-33.75 25.4-32.5 27.03-30.18 28.65-27.85 28.65-24.75L28.65-24.75Q28.65-21.35 26.73-19.03 24.8-16.7 21.65-15.55 18.5-14.4 14.85-14.4L14.85-14.4Q12.35-14.4 9.4-15.3L9.4-15.3 27.35-3.4ZM15.5-32.45Q13.45-32.45 11.53-31.95 9.6-31.45 7.15-30.35L7.15-30.35 7.3-26.9Q7.55-22.85 7.6-18L7.6-18Q10.65-16.9 14.5-16.9L14.5-16.9Q19.35-16.9 22.58-18.93 25.8-20.95 25.8-24.6L25.8-24.6Q25.8-26.9 24.5-28.68 23.2-30.45 20.85-31.45 18.5-32.45 15.5-32.45L15.5-32.45Z" opacity="1" transform="matrix(1,0,0,1,0,0)" fill="#ffcf31" class="undefined-text-0" data-fill-palette-color="primary" id="text-0"></path></svg></g></svg></g></svg></g></svg></g><g></g></svg></g></svg></g></svg></g><path d="M0 41.215L0 1 112.146 1 112.146 41.215 98.369 41.215 98.369 14.777 13.777 14.777 13.777 41.215 0 41.215M0 205.985L0 246.2 112.146 246.2 112.146 205.985 98.369 205.985 98.369 232.423 13.777 232.423 13.777 205.985 0 205.985" fill="#ffcf31" stroke="transparent" data-fill-palette-color="primary"></path></svg></g><defs></defs></svg><rect width="112.14628345120227" height="247.2" fill="none" stroke="none" visibility="hidden"></rect></g></svg></g></svg>